<?xml version="1.0" encoding="UTF-8" standalone="no"?>
<svg
   xmlns:dc="http://purl.org/dc/elements/1.1/"
   xmlns:cc="http://creativecommons.org/ns#"
   xmlns:rdf="http://www.w3.org/1999/02/22-rdf-syntax-ns#"
   xmlns:svg="http://www.w3.org/2000/svg"
   xmlns="http://www.w3.org/2000/svg"
   xmlns:sodipodi="http://sodipodi.sourceforge.net/DTD/sodipodi-0.dtd"
   xmlns:inkscape="http://www.inkscape.org/namespaces/inkscape"
   width="50"
   height="50"
   viewBox="0 0 13.229167 13.229167"
   version="1.1"
   id="svg1172"
   inkscape:version="1.0.1 (3bc2e813f5, 2020-09-07)"
   sodipodi:docname="banner-image.svg">
  <defs
     id="defs1166" />
  <sodipodi:namedview
     id="base"
     pagecolor="#ffffff"
     bordercolor="#666666"
     borderopacity="1.0"
     inkscape:pageopacity="0.0"
     inkscape:pageshadow="2"
     inkscape:zoom="6.8104633"
     inkscape:cx="20.70274"
     inkscape:cy="23.794974"
     inkscape:document-units="px"
     inkscape:current-layer="layer1"
     inkscape:document-rotation="0"
     showgrid="false"
     fit-margin-top="0"
     fit-margin-left="0"
     fit-margin-right="0"
     fit-margin-bottom="0"
     units="px"
     inkscape:window-width="1264"
     inkscape:window-height="984"
     inkscape:window-x="0"
     inkscape:window-y="0"
     inkscape:window-maximized="0" />
  <metadata
     id="metadata1169">
    <rdf:RDF>
      <cc:Work
         rdf:about="">
        <dc:format>image/svg+xml</dc:format>
        <dc:type
           rdf:resource="http://purl.org/dc/dcmitype/StillImage" />
        <dc:title></dc:title>
      </cc:Work>
    </rdf:RDF>
  </metadata>
  <g
     inkscape:label="Layer 1"
     inkscape:groupmode="layer"
     id="layer1"
     transform="translate(-116.49843,-121.17451)">
    <g
       id="g1150"
       inkscape:export-xdpi="165"
       inkscape:export-ydpi="165"
       transform="matrix(1.3744592,0,0,1.8108918,-45.877197,-198.96438)">
      <path
         style="fill:#f7a905;fill-opacity:1;stroke:none;stroke-width:0.0955032;stroke-linecap:butt;stroke-linejoin:miter;stroke-miterlimit:4;stroke-dasharray:none;stroke-opacity:1"
         d="m 123.49839,179.83347 c 0,0 0.8994,1.38151 1.02704,1.45901 0.12763,0.0775 0.47722,0.68969 0.56797,1.08887 0.0599,0.26339 0.0505,0.5512 -0.0273,0.80987 -0.054,0.17975 -0.16237,0.34664 -0.2945,0.47995 -0.14654,0.14784 -0.33413,0.25904 -0.52934,0.33131 -0.18313,0.0678 -0.38404,0.0922 -0.57926,0.0875 -0.24001,-0.006 -0.4569,-0.0601 -0.68958,-0.11923 -0.19366,-0.0492 -0.39852,-0.0791 -0.57276,-0.1769 -0.12852,-0.0721 -0.42874,-0.78167 -0.42874,-0.78167 -0.003,0.001 -0.003,0.001 -0.003,0.001 0,0 -0.48967,0.22257 -0.7518,0.26815 -0.25569,0.0445 -0.52357,0.0495 -0.77859,0.001 -0.23662,-0.0447 -0.47677,-0.17312 -0.68871,-0.28744 -0.18961,-0.10228 -0.40789,-0.19375 -0.5282,-0.37246 -0.12147,-0.18043 -0.17042,-0.41925 -0.14777,-0.63557 0.0217,-0.20691 0.13713,-0.40072 0.26421,-0.56544 0.17234,-0.22339 0.41199,-0.39095 0.65079,-0.5412 0.36966,-0.23258 0.78148,-0.39441 1.19123,-0.54557 0.50041,-0.18461 1.01416,-0.34291 1.53896,-0.43816 0.25632,-0.0465 0.77892,-0.0638 0.77892,-0.0638 z"
         id="path1040"
         sodipodi:nodetypes="cssssasssccssssssaasc" />
      <path
         style="fill:#f7a905;fill-opacity:1;stroke:none;stroke-width:0.0955032;stroke-linecap:butt;stroke-linejoin:miter;stroke-miterlimit:4;stroke-dasharray:none;stroke-opacity:1"
         d="m 127.29213,180.89273 c 0,0 0.0813,0.0386 0.21641,0.17449 0.13511,0.13591 0.17132,0.17726 0.23377,0.31441 0,0 0.0186,0.0527 0.0205,0.10559 0.002,0.0564 -0.2022,0.38998 -0.28757,0.43088 -0.0854,0.0409 -0.29934,0.10882 -0.36274,0.10328 -0.0636,-0.006 -0.26738,-0.0366 -0.39806,-0.0691 -0.50328,-0.12529 -1.47884,-0.48365 -1.47884,-0.48365 0,0 0.24455,-0.55693 0.27326,-0.65571 0.0287,-0.0988 0.37429,-0.62467 0.41102,-0.66699 0.0369,-0.0425 0.41825,-0.32837 0.49259,-0.34577 0.0744,-0.0174 0.2884,-0.0859 0.38964,-0.0546 0.1013,0.0313 0.26934,0.0967 0.32169,0.12628 0.0524,0.0297 0.1831,0.11619 0.23434,0.20693 0.0594,0.1052 0.0681,0.23576 0.0651,0.35653 -0.002,0.073 -0.0301,0.14304 -0.05,0.21332 -0.0233,0.0825 -0.0811,0.24411 -0.0811,0.24411 z"
         id="path1042"
         sodipodi:nodetypes="csssssscsssscsssc" />
      <path
         style="fill:#f7a905;fill-opacity:1;stroke:none;stroke-width:0.0955032;stroke-linecap:butt;stroke-linejoin:miter;stroke-miterlimit:4;stroke-dasharray:none;stroke-opacity:1"
         d="m 126.054,178.32478 c 0.053,0.0817 0.0911,0.0195 0.26585,0.1212 0.1748,0.10169 0.24097,0.14551 0.32849,0.25229 0.0509,0.0621 0.0813,0.16357 0.10629,0.21599 0.025,0.0524 -0.1194,0.30102 -0.18771,0.35901 -0.0685,0.0582 -0.2527,0.17031 -0.31567,0.17824 -0.0632,0.008 -0.27075,0.0227 -0.40632,0.0198 -0.53008,-0.0113 -1.58395,-0.14525 -1.58395,-0.14525 0,0 0.053,-0.58979 0.0481,-0.69122 -0.005,-0.10144 0.15563,-0.68321 0.17713,-0.73199 0.0216,-0.0491 0.29536,-0.40717 0.36128,-0.44008 0.0659,-0.0329 0.24974,-0.14524 0.35758,-0.13716 0.10791,0.008 0.29129,0.0347 0.35148,0.0519 0.0603,0.0172 0.29376,0.14858 0.29376,0.14858 l 0.17981,0.32947 0.0218,0.21641 c 0,0 -0.0438,0.18212 0.002,0.25281 z"
         id="path1044"
         sodipodi:nodetypes="ssssssscssssccccs" />
      <path
         style="fill:#f7a905;fill-opacity:1;stroke:none;stroke-width:0.0955032;stroke-linecap:butt;stroke-linejoin:miter;stroke-miterlimit:4;stroke-dasharray:none;stroke-opacity:1"
         d="m 122.4312,177.14167 c 0,0 0.0503,-0.0648 0.22218,-0.1696 0.17192,-0.10486 0.25343,-0.14924 0.39488,-0.17864 0.10877,-0.0226 0.26423,0.009 0.33326,0.005 0.069,-0.004 0.26914,0.16091 0.31659,0.23142 0.0475,0.0706 0.12278,0.24706 0.11394,0.29842 -0.009,0.0516 -0.0556,0.21781 -0.0992,0.32094 -0.17524,0.41435 -0.64759,1.18415 -0.64759,1.18415 0,0 -0.67582,-0.21864 -0.79621,-0.24557 -0.12045,-0.0268 -0.7543,-0.32642 -0.80514,-0.35786 -0.0509,-0.0315 -0.38856,-0.35165 -0.4073,-0.41268 -0.0187,-0.061 -0.0949,-0.23724 -0.0531,-0.31852 0.0418,-0.0812 0.12846,-0.21539 0.16673,-0.25685 0.0383,-0.0415 0.1625,-0.14641 0.26278,-0.18295 0.13855,-0.0505 0.29327,-0.0469 0.44058,-0.0401 0.0882,0.004 0.17413,0.0295 0.26038,0.0483 0.0998,0.0217 0.29722,0.0745 0.29722,0.0745 z"
         id="path1046"
         sodipodi:nodetypes="cssssssccscsssssc" />
      <path
         style="fill:#f7a905;fill-opacity:1;stroke:none;stroke-width:0.0955032;stroke-linecap:butt;stroke-linejoin:miter;stroke-miterlimit:4;stroke-dasharray:none;stroke-opacity:1"
         d="m 119.25336,178.61099 c 0.0704,-0.0487 0.0129,-0.0757 0.11581,-0.2292 0.10286,-0.15336 0.15698,-0.22223 0.26766,-0.29604 0.0899,-0.0599 0.18262,-0.0671 0.24354,-0.0938 0.0609,-0.0266 0.38898,0.041 0.46835,0.0888 0.0792,0.0483 0.23844,0.18315 0.25639,0.23279 0.0181,0.0501 0.0609,0.21494 0.0741,0.3254 0.0511,0.42894 0.0174,1.29582 0.0174,1.29582 0,0 -0.7264,0.0301 -0.84968,0.0462 -0.12332,0.0161 -0.85296,-0.0419 -0.91529,-0.053 -0.0621,-0.0121 -0.53335,-0.18824 -0.5816,-0.23744 -0.0483,-0.0492 -0.20811,-0.1836 -0.21138,-0.27166 -0.004,-0.0881 0.007,-0.23928 0.0201,-0.28996 0.0132,-0.0509 0.0739,-0.18827 0.14525,-0.25528 0.10279,-0.0965 0.24585,-0.14245 0.38008,-0.18557 0.0842,-0.027 0.17392,-0.0321 0.26149,-0.0442 0.10221,-0.0141 0.2229,0.0258 0.30778,-0.0329 z"
         id="path1048"
         sodipodi:nodetypes="sssscsscscccsssss" />
    </g>
  </g>
</svg>
