<?xml version="1.0" encoding="UTF-8" standalone="no"?>
<svg
   xmlns:dc="http://purl.org/dc/elements/1.1/"
   xmlns:cc="http://creativecommons.org/ns#"
   xmlns:rdf="http://www.w3.org/1999/02/22-rdf-syntax-ns#"
   xmlns:svg="http://www.w3.org/2000/svg"
   xmlns="http://www.w3.org/2000/svg"
   xmlns:sodipodi="http://sodipodi.sourceforge.net/DTD/sodipodi-0.dtd"
   xmlns:inkscape="http://www.inkscape.org/namespaces/inkscape"
   width="60"
   height="60"
   viewBox="0 0 15.875 15.875"
   version="1.1"
   id="svg8"
   inkscape:version="1.0.1 (3bc2e813f5, 2020-09-07)"
   sodipodi:docname="logo.svg">
  <defs
     id="defs2" />
  <sodipodi:namedview
     id="base"
     pagecolor="#ffffff"
     bordercolor="#666666"
     borderopacity="1.0"
     inkscape:pageopacity="0.0"
     inkscape:pageshadow="2"
     inkscape:zoom="5.6568543"
     inkscape:cx="41.737585"
     inkscape:cy="40.887413"
     inkscape:document-units="mm"
     inkscape:current-layer="layer1"
     inkscape:document-rotation="0"
     showgrid="false"
     fit-margin-top="0"
     fit-margin-left="0"
     fit-margin-right="0"
     fit-margin-bottom="0"
     units="px"
     inkscape:window-width="1264"
     inkscape:window-height="984"
     inkscape:window-x="0"
     inkscape:window-y="0"
     inkscape:window-maximized="0" />
  <metadata
     id="metadata5">
    <rdf:RDF>
      <cc:Work
         rdf:about="">
        <dc:format>image/svg+xml</dc:format>
        <dc:type
           rdf:resource="http://purl.org/dc/dcmitype/StillImage" />
        <dc:title />
      </cc:Work>
    </rdf:RDF>
  </metadata>
  <g
     inkscape:label="Layer 1"
     inkscape:groupmode="layer"
     id="layer1"
     transform="translate(-62.484001,-104.81734)">
    <g
       id="g998"
       transform="translate(11.038231,-15.154182)" />
    <g
       id="g1053">
      <g
         id="g1013"
         style="fill:#f7a905;fill-opacity:1;fill-rule:evenodd">
        <path
           style="fill:#f7a905;stroke:#000000;stroke-width:0.0522517;stroke-linecap:butt;stroke-linejoin:miter;stroke-miterlimit:4;stroke-dasharray:none;stroke-opacity:1;fill-opacity:1;fill-rule:evenodd"
           d="m 64.726133,111.93464 c 0,0 0.01723,-0.098 0.02156,-0.11638 0.0043,-0.0184 0.02484,-0.10147 0.027,-0.11233 0.0022,-0.0108 0.04429,-0.0832 0.04752,-0.0897 0.0032,-0.006 0.06636,-0.0878 0.06636,-0.0878"
           id="path881" />
        <g
           id="g982"
           style="fill:#f7a905;fill-opacity:1;fill-rule:evenodd">
          <path
             style="fill:#f7a905;stroke:#000000;stroke-width:0.0522517;stroke-linecap:butt;stroke-linejoin:miter;stroke-miterlimit:4;stroke-dasharray:none;stroke-opacity:1;fill-opacity:1;fill-rule:evenodd"
             d="m 69.342623,111.45334 0.265388,-0.0741 c 0,0 0.222187,-0.0864 0.320936,-0.16046 0.09875,-0.0741 0.462888,-0.29625 0.487575,-0.32711 0.02468,-0.0308 0.357966,-0.31476 0.475232,-0.4382 0.117265,-0.12344 0.376482,-0.40735 0.50609,-0.46907 0.129608,-0.0617 0.314764,-0.17898 0.364139,-0.20983 0.04938,-0.0308 0.445265,-0.20119 0.445265,-0.20119 0,0 0.322946,-0.0524 0.471327,-0.0524 0.148381,0 0.645894,0.0262 0.645894,0.0262 l 0.593525,0.10473 0.593523,0.25312 0.445144,0.36659 c 0,0 0.209479,0.25312 0.226936,0.35787 0.01745,0.10473 0.174565,0.50623 0.174565,0.50623 l -0.0088,0.59353 c 0,0 -0.174565,0.64589 -0.174565,0.68953 0,0.0437 -0.445144,1.0474 -0.445144,1.0474 l -0.340404,0.61971 -0.602975,0.91003 c 0,0 -0.240702,0.32093 -0.253046,0.34562 -0.01234,0.0247 -0.327108,0.35179 -0.327108,0.35179 l -0.253045,0.25304 -0.265388,0.14196 -0.228359,0.0864 -0.253045,0.0494 -0.444372,-0.0123 -0.462888,-0.0618 c 0,0 -0.23453,-0.0803 -0.290076,-0.0988 -0.05554,-0.0185 -0.185155,-0.17899 -0.185155,-0.17899 l -0.01234,-0.0556 -0.178984,0.0679 -0.320935,0.0741 c 0,0 -0.345623,0.006 -0.37031,0.006 -0.02469,0 -0.327108,-0.0493 -0.327108,-0.0493 l -0.283904,-0.11108 -0.314764,0.24686 -0.357967,0.17282 -0.376482,0.22219 -0.30242,0.15429 c 0,0 -0.259217,0.21601 -0.283905,0.23453 -0.02468,0.0185 -0.234529,0.27156 -0.234529,0.27156 l -0.246874,0.22836 -0.222186,0.14195 c 0,0 -0.09258,0.0432 -0.141952,0.0618 -0.04938,0.0185 -0.209843,0.0679 -0.23453,0.0679 -0.02468,0 -0.20367,-0.0432 -0.253045,-0.0555 -0.04938,-0.0123 -0.117265,-0.0618 -0.154296,-0.0988 -0.03704,-0.037 -0.129609,-0.17281 -0.148124,-0.21602 -0.01852,-0.0432 -0.03086,-0.11108 -0.02468,-0.1543 0.0062,-0.0432 0.01852,-0.10492 0.01852,-0.10492 l -0.104921,-0.0618 c 0,0 -0.135781,-0.0803 -0.154296,-0.1111 -0.01852,-0.0308 -0.08024,-0.11726 -0.09874,-0.18515 -0.01852,-0.0679 -0.04938,-0.14813 -0.05554,-0.20367 -0.0062,-0.0556 0,-0.19133 0,-0.21602 0,-0.0247 -0.0864,-0.16663 -0.0864,-0.16663 0,0 -0.0062,-0.1543 -0.0062,-0.17899 0,-0.0247 0.0062,-0.10493 0.0062,-0.10493 0,0 -0.0648,-0.0864 -0.0648,-0.10178 0,-0.0155 -0.01852,-0.0926 -0.01852,-0.0926 v -0.0525 l -0.09875,0.0833 c 0,0 -0.09874,0.0432 -0.145038,0.0278 -0.04628,-0.0155 -0.126523,-0.0493 -0.154296,-0.0802 -0.02778,-0.0308 -0.09566,-0.0926 -0.104921,-0.13887 -0.0093,-0.0463 -0.03086,-0.15121 -0.03086,-0.16972 0,-0.0185 0.0216,-0.13888 0.0216,-0.13888 0,0 -0.111093,-0.006 -0.145038,-0.0308 -0.03394,-0.0247 -0.15121,-0.12653 -0.157382,-0.13887 -0.0062,-0.0123 -0.07714,-0.13886 -0.07714,-0.15738 0,-0.0185 -0.01542,-0.12035 0,-0.14195 0.01542,-0.0216 0.09566,-0.12961 0.09566,-0.12961 l 0.157382,-0.13269 -0.296248,-0.14196 c 0,0 -0.203671,-0.11726 -0.240702,-0.14812 -0.03704,-0.0308 -0.129609,-0.14195 -0.129609,-0.14195 l -0.04938,-0.037 -0.111093,0.0618 -0.228358,-0.006 -0.283905,-0.11109 -0.277732,-0.1543 c 0,0 -0.228358,-0.1728 -0.253045,-0.21602 -0.02468,-0.0432 -0.123437,-0.22835 -0.123437,-0.27772 0,-0.0493 -0.0432,-0.25922 -0.03086,-0.28391 0.01234,-0.0247 0.0432,-0.1975 0.05554,-0.22836 0.01234,-0.0308 0.05246,-0.14812 0.06172,-0.16355 0.0093,-0.0155 0.06788,-0.11418 0.06788,-0.11418 l 0.120351,-0.0864 0.126523,-0.0864 -0.143769,-0.13585 c 0,0 -0.09601,-0.22693 -0.122197,-0.30112 -0.02619,-0.0742 -0.08728,-0.21821 -0.08728,-0.27931 0,-0.0611 -0.0088,-0.17893 0,-0.19638 0.0088,-0.0175 0.04364,-0.0873 0.06983,-0.11784 0.02619,-0.0305 0.05674,-0.0654 0.12656,-0.1091 0.06983,-0.0437 0.165839,-0.0917 0.192023,-0.13092 0.02619,-0.0393 0.196387,-0.20948 0.218208,-0.20948 0.02182,0 0.213843,-0.20948 0.213843,-0.20948 l 0.582001,-0.6373 0.27156,-0.22836 0.290077,-0.16047 0.222186,-0.0247 0.240701,0.0555 0.277734,0.20368 0.209842,0.17898 0.141952,0.18516 0.369343,0.0914 0.667716,0.21384 c 0,0 0.152745,-0.1222 0.170201,-0.13965 0.01745,-0.0174 0.231299,-0.13966 0.231299,-0.13966 0,0 0.20948,-0.0742 0.257486,-0.0742 0.04801,0 0.240027,-0.008 0.240027,-0.008 l 0.226937,0.048 0.187658,0.1091 0.248757,0.16147 0.292397,0.22694 0.200751,0.27494 0.170202,0.28803 z"
             id="path24" />
          <path
             style="fill:#f7a905;stroke:#000000;stroke-width:0.0522517;stroke-linecap:butt;stroke-linejoin:miter;stroke-miterlimit:4;stroke-dasharray:none;stroke-opacity:1;fill-opacity:1;fill-rule:evenodd"
             d="m 64.356145,111.11615 0.170201,0.002 c 0,0 0.109104,0.0371 0.117832,0.048 0.0088,0.0109 0.111287,0.11346 0.111287,0.11346 l 0.07637,0.11347 0.04364,0.072 0.01309,0.0633 0.102905,-0.12767 0.13578,-0.0648 0.13578,-0.0432 c 0,0 0.154296,-0.009 0.16664,-0.009 0.01234,0 0.182069,0.0247 0.182069,0.0247 l 0.135781,0.0679 c 0,0 0.07714,0.0463 0.0864,0.0586 0.0093,0.0123 0.101839,0.0988 0.104922,0.11418 0.0031,0.0155 0.07406,0.16355 0.07406,0.16355 l 0.03086,0.16355 0.0062,0.13887 -0.0432,0.16972 -0.09566,0.17282 -0.141952,0.12652 -0.160468,0.0833 -0.157382,0.034 h -0.157382 c 0,0 -0.114179,-0.0185 -0.148124,-0.0308 -0.03394,-0.0123 -0.209842,-0.11727 -0.209842,-0.11727 0,0 -0.08332,-0.0926 -0.09875,-0.11418 -0.01542,-0.0216 -0.07714,-0.14194 -0.08024,-0.1543 -0.0031,-0.0123 -0.03394,-0.12343 -0.03394,-0.14812 0,-0.0247 0.0031,-0.10179 0.0031,-0.10179 l -0.04045,0.0607 -0.100375,0.0437 -0.09383,0.0283 -0.09601,0.0109 c 0,0 -0.100375,-0.0196 -0.113467,-0.024 -0.0131,-0.004 -0.09819,-0.0349 -0.09819,-0.0349 0,0 -0.08946,-0.0676 -0.106921,-0.0808 -0.01745,-0.0131 -0.07201,-0.0938 -0.07855,-0.10693 -0.0066,-0.0131 -0.0371,-0.072 -0.04364,-0.0917 -0.0066,-0.0196 -0.02182,-0.0633 -0.02182,-0.0938 0,-0.0305 0,-0.0982 0,-0.1091 0,-0.0109 0.024,-0.10693 0.024,-0.10693 0,0 0.03273,-0.0808 0.04364,-0.0917 0.01091,-0.0109 0.02182,-0.0437 0.05237,-0.0698 0.03055,-0.0262 0.08074,-0.0676 0.08074,-0.0676 l 0.113468,-0.0654 z"
             id="path853" />
          <path
             style="fill:#f7a905;stroke:#000000;stroke-width:0.0522517;stroke-linecap:butt;stroke-linejoin:miter;stroke-miterlimit:4;stroke-dasharray:none;stroke-opacity:1;fill-opacity:1;fill-rule:evenodd"
             d="m 64.991475,111.4008 c 0,0 0.216015,-0.25604 0.240703,-0.28073 0.02468,-0.0247 0.104922,-0.0741 0.104922,-0.0741 l 0.07714,-0.0586 c 0,0 0.08024,-0.0463 0.101838,-0.0463 0.0216,0 0.117266,-0.0247 0.117266,-0.0247 l 0.157382,-0.0216 c 0,0 0.04012,0 0.138866,0 0.09874,0 0.283905,0.037 0.283905,0.037 0,0 0.13578,0.0185 0.175897,0.0401 0.04012,0.0216 0.209842,0.11726 0.209842,0.11726 l 0.09566,0.0741 0.120351,0.11109 0.07714,0.1543 0.07406,0.23144 0.02468,0.22836 -0.02778,0.29317 -0.04938,0.29624 -0.129608,0.43819 -0.05554,0.20368 -0.0648,0.14812 -0.117266,0.0679 c 0,0 -0.08024,0 -0.09874,0 -0.01852,0 -0.07406,-0.0308 -0.09875,-0.0401 -0.02468,-0.009 -0.145038,-0.0956 -0.145038,-0.0956 0,0 -0.09874,-0.0988 -0.114179,-0.12035 -0.01543,-0.0216 -0.07098,-0.13887 -0.07098,-0.13887 0,0 -0.03704,-0.0771 -0.07098,-0.0988 -0.03394,-0.0216 -0.138866,-0.0956 -0.154296,-0.0988 -0.01542,-0.003 -0.15121,-0.0648 -0.166639,-0.0679 -0.01542,-0.003 -0.333288,-0.0742 -0.333288,-0.0742"
             id="path857" />
          <path
             style="fill:#f7a905;stroke:#000000;stroke-width:0.0522517;stroke-linecap:butt;stroke-linejoin:miter;stroke-miterlimit:4;stroke-dasharray:none;stroke-opacity:1;fill-opacity:1;fill-rule:evenodd"
             d="m 74.10111,109.7314 0.172811,-0.22218 0.265389,-0.20367 c 0,0 0.262303,-0.22218 0.28699,-0.24379 0.02469,-0.0216 0.314764,-0.19441 0.361053,-0.2191 0.04628,-0.0247 0.357966,-0.16356 0.357966,-0.16356 l 0.262304,-0.0803 0.333279,-0.0463 c 0,0 0.299334,-0.006 0.333279,0 0.03394,0.006 0.373396,0.0308 0.373396,0.0308 l 0.446086,0.0953 0.336039,0.0938 0.225428,0.0824 0.114179,0.0447 0.08153,0.042 0.0371,0.0469 0.01309,0.0556 -0.012,0.0437 -0.04146,0.0415 -0.07419,0.006 c 0,0 -0.197477,-0.0425 -0.206206,-0.0425 -0.0088,0 -0.137471,-0.0153 -0.152745,-0.0196 -0.01528,-0.004 -0.159291,-0.008 -0.196387,-0.0109 -0.0371,-0.002 -0.117831,0.004 -0.161473,0.004 -0.04364,0 -0.211661,0.0131 -0.211661,0.0131 l -0.196387,0.0284 -0.157109,0.0349 -0.375317,0.12656 -0.205115,0.0742 -0.250939,0.13965 -0.205115,0.13966 -0.172383,0.14837 -0.192023,0.17458 -0.165837,0.19201 -0.133107,0.17457 -0.03491,-0.0414 -0.445143,-0.3666 z"
             id="path865" />
          <path
             style="fill:#f7a905;stroke:#000000;stroke-width:0.0522517;stroke-linecap:butt;stroke-linejoin:miter;stroke-miterlimit:4;stroke-dasharray:none;stroke-opacity:1;fill-opacity:1;fill-rule:evenodd"
             d="m 74.161593,114.43744 0.170652,0.006 0.105846,0.0346 c 0,0 0.03672,0.0194 0.04104,0.0281 0.0043,0.008 0.01944,0.067 0.01944,0.067 l -0.01512,0.14258 -0.109407,0.43078 -0.128306,0.28412 -0.119142,0.24439 -0.152745,0.24134 c 0,0 -0.109976,0.14968 -0.119141,0.1619 -0.0092,0.0122 -0.143581,0.18941 -0.143581,0.18941 l -0.305588,0.43322 -0.185773,0.25058 -0.181452,0.14689 -0.194413,0.12529 -0.125288,0.0735 -0.138249,0.0302 c 0,0 -0.120968,0.0172 -0.138249,0.0172 -0.01728,0 -0.138249,-0.0518 -0.138249,-0.0518 l -0.0864,-0.0864 -0.0216,-0.082 -0.06373,0.0399 c 0,0 -0.08533,0.0421 -0.09073,0.0421 -0.0054,0 -0.09288,0.007 -0.104767,0.007 -0.01188,0 -0.09073,-0.0184 -0.09073,-0.0184 l -0.140331,-0.0527 -0.07332,-0.0688 -0.06415,-0.0947 c 0,0 -0.07484,-0.003 -0.08096,-0.003 -0.0061,0 -0.109993,0.001 -0.109993,0.001 l -0.08857,-0.0432 -0.09505,-0.0778 c 0,0 -0.05184,-0.10367 -0.05616,-0.11233 -0.0043,-0.008 -0.01944,-0.12529 -0.01944,-0.12529 0,0 0.0087,-0.0799 0.01512,-0.0951 0.0065,-0.0152 0.0216,-0.0864 0.04537,-0.108 0.02376,-0.0216 0.08424,-0.108 0.09073,-0.11665 0.0065,-0.008 0.153371,-0.13393 0.153371,-0.13393 l 0.339401,0.0464 0.444372,0.0123 0.253045,-0.0494 0.228359,-0.0864 0.265388,-0.14196 0.531973,-0.53686 0.207734,-0.28411 0.237654,-0.35324 z"
             id="path867" />
          <path
             style="fill:#f7a905;stroke:#000000;stroke-width:0.0522517;stroke-linecap:butt;stroke-linejoin:miter;stroke-miterlimit:4;stroke-dasharray:none;stroke-opacity:1;fill-opacity:1;fill-rule:evenodd"
             d="m 69.342623,111.45334 c 0,0 0.155797,0.29038 0.158852,0.31787 0.003,0.0275 0.143581,0.39713 0.143581,0.39713 0,0 0.05193,0.31772 0.05193,0.33299 0,0.0153 -0.01527,0.278 -0.01527,0.278 l -0.07332,0.23828 -0.08859,0.16191 -0.164965,0.18635 -0.177185,0.11609 -0.28716,0.0794 c 0,0 -0.183294,0.0305 -0.213844,0.0305 -0.03055,0 -0.238282,-0.0153 -0.29327,-0.0214 -0.05499,-0.006 -0.302436,-0.0519 -0.302436,-0.0519 l -0.232173,-0.0397 c 0,0 -0.128306,-0.0519 -0.13747,-0.0672 -0.0092,-0.0153 -0.05499,-0.055 -0.05499,-0.11303 0,-0.058 0.003,-0.0916 0.0092,-0.14053 0.0061,-0.0489 0.02444,-0.0977 0.04888,-0.16802 0.02444,-0.0702 0.04888,-0.1558 0.06109,-0.19551 0.01222,-0.0397 0.05193,-0.18024 0.05193,-0.21078 0,-0.0305 0.02444,-0.18025 0.03055,-0.22607 0.0061,-0.0459 0.003,-0.28105 -0.0092,-0.32077 -0.01222,-0.0397 -0.0336,-0.29021 -0.0336,-0.29021 l -0.07352,-0.20825 c 0,0 -0.06049,-0.18146 -0.07776,-0.20737 -0.01729,-0.0259 -0.125288,-0.17714 -0.125288,-0.17714 l -0.112328,-0.0821"
             id="path869" />
          <path
             style="fill:#f7a905;stroke:#000000;stroke-width:0.0522517;stroke-linecap:butt;stroke-linejoin:miter;stroke-miterlimit:4;stroke-dasharray:none;stroke-opacity:1;fill-opacity:1;fill-rule:evenodd"
             d="m 66.739842,110.73254 c 0,0 0.0504,-0.10539 0.06721,-0.12372 0.01681,-0.0183 0.09012,-0.12525 0.09012,-0.12525 l 0.08179,-0.0763"
             id="path871" />
          <path
             style="fill:#f7a905;stroke:#000000;stroke-width:0.0522517;stroke-linecap:butt;stroke-linejoin:miter;stroke-miterlimit:4;stroke-dasharray:none;stroke-opacity:1;fill-opacity:1;fill-rule:evenodd"
             d="m 64.526346,111.11824 c 0,0 0.121977,-0.14136 0.134937,-0.18024 0.01296,-0.0389 0.08209,-0.10801 0.125289,-0.18577 0.0432,-0.0777 0.129608,-0.19009 0.15985,-0.24193 0.03024,-0.0518 0.07776,-0.14258 0.133929,-0.18578 0.05616,-0.0432 0.125289,-0.0994 0.142569,-0.12097 0.01729,-0.0216 0.172812,-0.10367 0.194413,-0.10801 0.0216,-0.004 0.220335,-0.0172 0.220335,-0.0172 l 0.304238,0.0237"
             id="path873" />
          <path
             style="fill:#f7a905;stroke:#000000;stroke-width:0.0522517;stroke-linecap:butt;stroke-linejoin:miter;stroke-miterlimit:4;stroke-dasharray:none;stroke-opacity:1;fill-opacity:1;fill-rule:evenodd"
             d="m 63.56427,112.24014 -0.0886,-0.026 -0.111504,-0.006 c 0,0 -0.125537,0.0109 -0.125537,0.0109 0,0 0.165444,-0.0885 0.195686,-0.10584 0.03024,-0.0172 0.194413,-0.11664 0.194413,-0.11664 0,0 0.131768,-0.0713 0.16201,-0.0929 0.03024,-0.0216 0.06913,-0.067 0.09505,-0.0799 0.02592,-0.013 0.07561,-0.0648 0.07561,-0.0648"
             id="path875" />
          <path
             style="fill:#f7a905;stroke:#000000;stroke-width:0.0522517;stroke-linecap:butt;stroke-linejoin:miter;stroke-miterlimit:4;stroke-dasharray:none;stroke-opacity:1;fill-opacity:1;fill-rule:evenodd"
             d="m 67.733007,113.41784 -0.02593,0.17282 -0.04753,0.18144 -0.112328,0.20307 -0.112327,0.18144 -0.125289,0.17281 -0.116648,0.11665 -0.133928,0.0692 -0.211694,0.0735 -0.181453,0.0432 -0.16417,0.004 -0.185773,0.008 -0.17281,-0.0172 -0.168492,-0.0476 -0.194413,-0.0648 -0.177132,-0.11233 0.14905,-0.0842 0.108007,-0.0929 0.07776,-0.11449 c 0,0 0.03672,-0.0951 0.03672,-0.11881 0,-0.0237 0.01944,-0.0972 0.01729,-0.12529 -0.0022,-0.0281 -0.02377,-0.1512 -0.03024,-0.17064 -0.0065,-0.0194 -0.0648,-0.16634 -0.06913,-0.17713 -0.0043,-0.0108 -0.09721,-0.16418 -0.103688,-0.1793 -0.0065,-0.0151 -0.138248,-0.18793 -0.138248,-0.18793 l -0.184683,-0.17119 -0.223008,-0.16802 -0.198569,-0.0947 -0.226062,-0.0886 c 0,0 -0.226063,-0.0489 -0.250502,-0.0581 -0.02444,-0.009 -0.158179,-0.0286 -0.158179,-0.0286"
             id="path877" />
          <path
             style="fill:#f7a905;stroke:#000000;stroke-width:0.0522517;stroke-linecap:butt;stroke-linejoin:miter;stroke-miterlimit:4;stroke-dasharray:none;stroke-opacity:1;fill-opacity:1;fill-rule:evenodd"
             d="m 64.115045,113.88543 -0.09748,-0.0874 -0.09936,-0.15553 -0.05184,-0.14689 -0.04752,-0.18577 -0.01296,-0.15121 0.0087,-0.10367 0.0087,-0.0302"
             id="path879" />
          <path
             style="fill:#f7a905;stroke:#000000;stroke-width:0.0522517;stroke-linecap:butt;stroke-linejoin:miter;stroke-miterlimit:4;stroke-dasharray:none;stroke-opacity:1;fill-opacity:1;fill-rule:evenodd"
             d="m 66.052991,116.97749 c 0.01886,-0.0408 0.03831,-0.11638 0.05775,-0.14014 0.01944,-0.0237 0.06696,-0.12961 0.06696,-0.12961 0,0 0.0648,-0.0799 0.09073,-0.0994 0.02593,-0.0194 0.08209,-0.0583 0.108008,-0.0757 0.02592,-0.0173 0.15769,-0.08 0.15769,-0.08 l 0.07561,-0.0237 0.05184,-0.008"
             id="path883" />
          <path
             style="fill:#f7a905;stroke:#000000;stroke-width:0.0522517;stroke-linecap:butt;stroke-linejoin:miter;stroke-miterlimit:4;stroke-dasharray:none;stroke-opacity:1;fill-opacity:1;fill-rule:evenodd"
             d="m 65.647389,116.21631 c 0,0 0.07128,-0.13717 0.07452,-0.14257 0.0032,-0.005 0.08424,-0.12529 0.09181,-0.13609 0.0075,-0.0108 0.07668,-0.0723 0.103688,-0.0919 0.027,-0.0194 0.15121,-0.0982 0.15121,-0.0982 l 0.126369,-0.0551 0.127448,-0.0259"
             id="path885" />
          <path
             style="fill:#f7a905;stroke:#000000;stroke-width:0.0522517;stroke-linecap:butt;stroke-linejoin:miter;stroke-miterlimit:4;stroke-dasharray:none;stroke-opacity:1;fill-opacity:1;fill-rule:evenodd"
             d="m 65.553082,115.74924 c 0,0 0.03274,-0.11941 0.05867,-0.14318 0.02593,-0.0237 0.04968,-0.11232 0.09288,-0.1404 0.0432,-0.0281 0.101525,-0.11233 0.136089,-0.13177 0.03456,-0.0194 0.166331,-0.0885 0.183611,-0.0951 0.01729,-0.006 0.116648,-0.0454 0.166332,-0.0583 0.04968,-0.013 0.08857,-0.0367 0.14689,-0.0411 0.05832,-0.004 0.183611,-0.0259 0.183611,-0.0259 l 0.185072,-0.006 c 0,0 0.236157,-0.0131 0.253438,-0.0131 0.01728,0 0.15121,-0.0173 0.168491,-0.0173 0.01729,0 0.194413,-0.0346 0.194413,-0.0346 l 0.198733,-0.0648 0.15553,-0.0907 0.09936,-0.0951 0.07776,-0.11664 0.09936,-0.17714 c 0,0 0.03456,-0.12096 0.05616,-0.14689 0.0216,-0.0259 0.06049,-0.1944 0.06049,-0.1944 l 0.03456,-0.11665"
             id="path887" />
          <path
             style="fill:#f7a905;stroke:#000000;stroke-width:0.0522517;stroke-linecap:butt;stroke-linejoin:miter;stroke-miterlimit:4;stroke-dasharray:none;stroke-opacity:1;fill-opacity:1;fill-rule:evenodd"
             d="m 64.957502,115.08577 c 0.02348,-0.0479 0.02781,-0.10398 0.04077,-0.11478 0.01296,-0.0108 0.04752,-0.0735 0.07776,-0.0951 0.03024,-0.0216 0.118808,-0.082 0.118808,-0.082 l 0.06913,-0.0281 0.0432,-0.008"
             id="path889" />
          <path
             style="fill:#f7a905;stroke:#000000;stroke-width:0.0522517;stroke-linecap:butt;stroke-linejoin:miter;stroke-miterlimit:4;stroke-dasharray:none;stroke-opacity:1;fill-opacity:1;fill-rule:evenodd"
             d="m 65.469761,115.50241 c 0,0 0.02521,-0.10503 0.04048,-0.13405 0.01528,-0.029 0.05652,-0.12067 0.06873,-0.14816 0.01222,-0.0275 0.06568,-0.10388 0.08401,-0.11915 0.01833,-0.0152 0.07026,-0.0611 0.07942,-0.0642 0.0092,-0.003 0.0611,-0.0305 0.0611,-0.0305"
             id="path891" />
          <path
             style="fill:#f7a905;stroke:#000000;stroke-width:0.0522517;stroke-linecap:butt;stroke-linejoin:miter;stroke-miterlimit:4;stroke-dasharray:none;stroke-opacity:1;fill-opacity:1;fill-rule:evenodd"
             d="m 67.19296,114.44607 c 0,0 -0.08958,0.0822 -0.09569,0.0867 -0.0061,0.004 -0.01986,0.0596 -0.01986,0.0596 l 0.0275,0.0657 c 0,0 0.05194,0.0473 0.05652,0.0535 0.0046,0.006 0.0504,0.0504 0.0611,0.0519 0.01069,0.001 0.04124,0.0229 0.06415,0.0199 0.02291,-0.003 0.0504,-0.0152 0.07332,-0.0229 0.02291,-0.007 0.120669,-0.084 0.120669,-0.084 l 0.131384,-0.12019 c 0,0 0.103688,-0.10367 0.116648,-0.1188 0.01296,-0.0152 0.07561,-0.10802 0.09073,-0.12529 0.01512,-0.0172 0.09288,-0.12962 0.09505,-0.14257 0.0022,-0.013 0.07345,-0.14689 0.07345,-0.15554 0,-0.008 0.03456,-0.15984 0.04968,-0.19225 0.01512,-0.0324 0.0432,-0.20089 0.0432,-0.21169 0,-0.0108 0.0022,-0.0951 0.0022,-0.0951"
             id="path893" />
          <path
             style="fill:#f7a905;stroke:#000000;stroke-width:0.0522517;stroke-linecap:butt;stroke-linejoin:miter;stroke-miterlimit:4;stroke-dasharray:none;stroke-opacity:1;fill-opacity:1;fill-rule:evenodd"
             d="m 67.188651,114.72905 c 0.09936,-0.0389 0.15553,-0.11449 0.15553,-0.11449 0,0 0.138249,-0.12528 0.166331,-0.14473 0.02808,-0.0194 0.114488,-0.14472 0.131769,-0.16201 0.01729,-0.0172 0.16201,-0.23329 0.16201,-0.23329 l 0.07561,-0.19226 0.05616,-0.15985 0.0216,-0.14472 0.01296,-0.082"
             id="path895" />
          <path
             style="fill:#f7a905;stroke:#000000;stroke-width:0.0522517;stroke-linecap:butt;stroke-linejoin:miter;stroke-miterlimit:4;stroke-dasharray:none;stroke-opacity:1;fill-opacity:1;fill-rule:evenodd"
             d="m 67.606639,114.93103 c 0,0 -0.07237,-0.0757 -0.08857,-0.0897 -0.0162,-0.014 -0.102612,-0.11233 -0.102612,-0.11233"
             id="path897" />
          <path
             style="fill:#f7a905;stroke:#000000;stroke-width:0.0522517;stroke-linecap:butt;stroke-linejoin:miter;stroke-miterlimit:4;stroke-dasharray:none;stroke-opacity:1;fill-opacity:1;fill-rule:evenodd"
             d="m 66.694019,115.11022 c 0,0 0.18024,-0.16802 0.183294,-0.17719 0.003,-0.009 0.261195,-0.25508 0.261195,-0.25508"
             id="path899" />
          <path
             style="fill:#f7a905;stroke:#000000;stroke-width:0.0522517;stroke-linecap:butt;stroke-linejoin:miter;stroke-miterlimit:4;stroke-dasharray:none;stroke-opacity:1;fill-opacity:1;fill-rule:evenodd"
             d="m 69.330231,115.80473 c 0.113202,-0.0805 0.223178,-0.19656 0.235398,-0.20878 0.01222,-0.0122 0.134415,-0.14053 0.155799,-0.16496 0.02138,-0.0244 0.1558,-0.19246 0.1558,-0.19246 0,0 0.07637,-0.11609 0.0947,-0.15886 0.01833,-0.0427 0.07026,-0.14052 0.07637,-0.16497 0.0061,-0.0245 0.05194,-0.16496 0.05194,-0.16496 l 0.03055,-0.1558"
             id="path909" />
          <path
             style="fill:#f7a905;stroke:#000000;stroke-width:0.0522517;stroke-linecap:butt;stroke-linejoin:miter;stroke-miterlimit:4;stroke-dasharray:none;stroke-opacity:1;fill-opacity:1;fill-rule:evenodd"
             d="m 70.811472,115.81685 c 0,0 -0.0697,-0.11704 -0.0697,-0.16591 0,-0.0489 0,-0.15886 0,-0.21995 0,-0.0611 0.01833,-0.21996 0.04277,-0.31161 0.02444,-0.0917 0.05499,-0.26272 0.08554,-0.32992 0.03055,-0.0672 0.116086,-0.32382 0.140525,-0.36659 0.02444,-0.0427 0.09775,-0.25661 0.122196,-0.28717 0.02444,-0.0305 0.103866,-0.24439 0.146636,-0.27493 0.04277,-0.0305 0.189404,-0.25051 0.189404,-0.25051 l 0.207733,-0.21995"
             id="path911" />
          <path
             style="fill:#f7a905;stroke:#000000;stroke-width:0.0522517;stroke-linecap:butt;stroke-linejoin:miter;stroke-miterlimit:4;stroke-dasharray:none;stroke-opacity:1;fill-opacity:1;fill-rule:evenodd"
             d="m 71.568101,116.97935 c 0,0 -0.0095,-0.0793 -0.01164,-0.0923 -0.0022,-0.013 -0.0087,-0.067 0,-0.0929 0.0087,-0.0259 0.02593,-0.12313 0.02593,-0.12313 l 0.04753,-0.11017 0.05616,-0.0885 0.07561,-0.082 0.07776,-0.0518 0.06049,-0.0367"
             id="path913" />
          <path
             style="fill:#f7a905;stroke:#000000;stroke-width:0.0522517;stroke-linecap:butt;stroke-linejoin:miter;stroke-miterlimit:4;stroke-dasharray:none;stroke-opacity:1;fill-opacity:1;fill-rule:evenodd"
             d="m 72.195859,117.12451 c -0.0022,-0.0495 -0.0022,-0.10571 -0.0022,-0.12299 0,-0.0172 0.0216,-0.13609 0.0216,-0.13609 l 0.03241,-0.14689 c 0,0 0.0432,-0.0972 0.04752,-0.10585 0.0043,-0.008 0.05832,-0.0972 0.06913,-0.10366 0.0108,-0.006 0.08424,-0.0907 0.08424,-0.0907 l 0.09505,-0.0842 0.123128,-0.0799"
             id="path915" />
          <path
             style="fill:#f7a905;stroke:#000000;stroke-width:0.0522517;stroke-linecap:butt;stroke-linejoin:miter;stroke-miterlimit:4;stroke-dasharray:none;stroke-opacity:1;fill-opacity:1;fill-rule:evenodd"
             d="m 71.713226,109.79164 0.0092,0.17412 0.01528,0.14664 0.05499,0.11608 0.07637,0.0734 0.08859,0.055 c 0,0 0.0611,0.0183 0.08248,0.0183 0.02138,0 0.103866,0 0.116087,0 0.01222,0 0.180239,-0.0397 0.207733,-0.0427 0.0275,-0.003 0.213843,-0.0489 0.213843,-0.0489 l 0.140526,-0.0275 0.09775,-0.006 0.125252,0.0305 0.100814,0.0397 0.05804,0.0611 0.04582,0.0824 0.02138,0.0794 -0.01527,0.0825 -0.02138,0.0672 -0.05194,0.0734 -0.07942,0.0611 -0.08554,0.0519 -0.158854,0.0642 -0.137471,0.058 -0.146636,0.0734 -0.31771,0.21996 -0.226062,0.18635 -0.18635,0.16802 -0.13136,0.16496 -0.09775,0.16192 -0.05194,0.12219 -0.03055,0.13746 -0.05499,0.26273 -0.04277,0.2169 -0.07637,0.17718 -0.07637,0.13136 -0.0947,0.13442 -0.137471,0.13748 -0.128306,0.12524 -0.198568,0.16802 -0.177185,0.0856 -0.195513,0.0794 -0.16802,0.0428 c 0,0 -0.116086,0 -0.134416,0.003 -0.01833,0.003 -0.14969,-0.0183 -0.14969,-0.0183 l -0.143581,-0.0336 -0.08859,-0.0458 -0.140526,-0.0856 -0.113031,-0.0978 -0.07637,-0.0825"
             id="path917" />
          <path
             style="fill:#f7a905;stroke:#000000;stroke-width:0.0522517;stroke-linecap:butt;stroke-linejoin:miter;stroke-miterlimit:4;stroke-dasharray:none;stroke-opacity:1;fill-opacity:1;fill-rule:evenodd"
             d="m 76.211569,109.30493 c 0,0 -0.06264,-0.004 -0.07776,-0.006 -0.01512,-0.002 -0.09721,0.008 -0.112328,0.0108 -0.01512,0.002 -0.131768,0.0216 -0.15121,0.0237 -0.01944,0.002 -0.09288,-0.013 -0.09288,-0.013 0,0 -0.01729,-0.0151 -0.0065,-0.0346 0.0108,-0.0194 0.02808,-0.0389 0.05184,-0.0497 0.02376,-0.0108 0.123128,-0.0518 0.142568,-0.0626 0.01944,-0.0108 0.04105,-0.0194 0.04537,-0.0302 0.0043,-0.0108 0.0324,-0.0173 0.01296,-0.0411 -0.01944,-0.0237 -0.01512,-0.0173 -0.02808,-0.0281 -0.01296,-0.0108 -0.0648,-0.0324 -0.08857,-0.0324 -0.02376,0 -0.101525,0.0108 -0.114488,0.0151 -0.01296,0.004 -0.08209,0.0259 -0.09936,0.0281 -0.01728,0.002 -0.01944,0.013 -0.02808,-0.006 -0.0087,-0.0194 -0.01296,-0.0216 -0.01296,-0.0389 0,-0.0172 0.01081,-0.0346 0.03024,-0.0496 0.01944,-0.0151 0.03024,-0.0281 0.05184,-0.0411 0.0216,-0.013 0.04537,-0.0453 0.04537,-0.0453 l 0.01512,-0.0281 c 0,0 0.0043,-0.0194 -0.0043,-0.0216 -0.0087,-0.002 -0.03456,-0.008 -0.03456,-0.008 0,0 -0.116647,0.008 -0.15121,0.008 -0.03456,0 -0.07776,0 -0.07776,0 0,0 -0.0216,-0.0108 -0.0216,-0.0216 0,-0.0108 -0.01729,-0.0194 0,-0.0302 0.01728,-0.0108 0.09288,-0.0583 0.09288,-0.0583 l 0.23978,-0.0885 0.303036,-0.1022"
             id="path919" />
          <path
             style="fill:#f7a905;stroke:#000000;stroke-width:0.0522517;stroke-linecap:butt;stroke-linejoin:miter;stroke-miterlimit:4;stroke-dasharray:none;stroke-opacity:1;fill-opacity:1;fill-rule:evenodd"
             d="m 64.830983,114.35445 0.188734,0.0512 0.16417,0.0475 0.103689,0.009 0.146889,-0.009 0.168632,-0.0507"
             id="path1008" />
        </g>
      </g>
      <path
         style="fill:none;stroke:#000000;stroke-width:0.0522517;stroke-linecap:butt;stroke-linejoin:miter;stroke-miterlimit:4;stroke-dasharray:none;stroke-opacity:1"
         d="m 64.280172,111.36386 0.146582,0.0169 0.08487,0.0833 0.05709,0.091 c 0,0 0.01389,0.0817 0.01389,0.0894 0,0.007 -0.02005,0.10954 -0.02005,0.10954 l -0.07251,0.0942 -0.09412,0.054 c 0,0 -0.06789,0.0294 -0.0864,0.0294 -0.01852,0 -0.07098,-0.003 -0.09258,-0.0123 -0.0216,-0.009 -0.09412,-0.0308 -0.09721,-0.037 -0.0031,-0.006 -0.0648,-0.0664 -0.07098,-0.0741 -0.0062,-0.007 -0.03857,-0.0648 -0.03857,-0.0787 0,-0.0139 -0.0031,-0.0956 -0.0031,-0.10956 0,-0.0139 0.02931,-0.0956 0.03241,-0.10178 0.0031,-0.006 0.05246,-0.0618 0.05709,-0.0695 0.0046,-0.007 0.08795,-0.0602 0.08795,-0.0602 z"
         id="path849" />
      <path
         style="fill:none;stroke:#000000;stroke-width:0.0522517;stroke-linecap:butt;stroke-linejoin:miter;stroke-miterlimit:4;stroke-dasharray:none;stroke-opacity:1"
         d="m 65.185627,111.63453 0.213012,0.0228 0.123327,0.1116 0.08296,0.12198 c 0,0 0.02018,0.1095 0.02018,0.11986 0,0.009 -0.02915,0.14678 -0.02915,0.14678 l -0.105377,0.12618 -0.136768,0.0724 c 0,0 -0.09865,0.0393 -0.12556,0.0393 -0.02691,0 -0.103144,-0.004 -0.134536,-0.0165 -0.03139,-0.0127 -0.136767,-0.0413 -0.141262,-0.0496 -0.0045,-0.008 -0.09418,-0.0889 -0.103145,-0.0993 -0.0089,-0.009 -0.05606,-0.0868 -0.05606,-0.10542 0,-0.0186 -0.0045,-0.12812 -0.0045,-0.1468 0,-0.0186 0.04259,-0.12812 0.04709,-0.13638 0.0045,-0.008 0.07623,-0.0828 0.08297,-0.0931 0.0067,-0.009 0.127808,-0.0807 0.127808,-0.0807 z"
         id="path851" />
      <path
         style="fill:#000000;fill-opacity:1;fill-rule:evenodd;stroke:#000000;stroke-width:0.0522517;stroke-linecap:butt;stroke-linejoin:miter;stroke-miterlimit:4;stroke-dasharray:none;stroke-opacity:1"
         d="m 63.625149,112.63488 c -0.0066,-0.0262 -0.09819,-0.12875 -0.106921,-0.1462 -0.0088,-0.0174 -0.05674,-0.0698 -0.05674,-0.096 0,-0.0262 -0.0088,-0.0524 0,-0.072 0.0088,-0.0196 -0.0022,-0.0459 0.04583,-0.0698 0.04801,-0.024 0.133107,-0.0589 0.133107,-0.0589 0,0 0.115649,-0.0153 0.126559,-0.0153 0.01091,0 0.130925,0.004 0.176749,0.0153 0.04583,0.0109 0.150562,0.0524 0.174565,0.0611 0.02401,0.008 0.154928,0.0764 0.165838,0.0829 0.01091,0.006 0.09601,0.0764 0.102559,0.0916 0.0066,0.0153 0.02619,0.0982 0.02619,0.10693 0,0.008 -0.01528,0.0873 -0.01528,0.0873 l -0.04801,0.0589 -0.09165,0.0459 c 0,0 -0.102559,0.0415 -0.122197,0.0545 -0.01964,0.0131 -0.106921,0.0611 -0.106921,0.0611 0,0 -0.024,0.0327 -0.04801,0.0349 -0.024,0.002 -0.07419,0.008 -0.09601,0.004 -0.02182,-0.004 -0.08074,-0.0284 -0.08074,-0.0284 0,0 -0.04801,-0.0349 -0.05674,-0.0459 -0.0088,-0.0109 -0.07201,-0.0917 -0.07637,-0.10252 -0.0044,-0.0109 -0.04583,-0.0698 -0.04583,-0.0698 z"
         id="path861" />
      <path
         style="fill:#ffffff;fill-opacity:1;stroke:#000000;stroke-width:0.0522517;stroke-linecap:butt;stroke-linejoin:miter;stroke-miterlimit:4;stroke-dasharray:none;stroke-opacity:1"
         d="m 63.791055,112.25261 c 0,0 0.04165,0.0169 0.07406,0.0247 0.03241,0.007 0.09721,0.0247 0.09721,0.0247 l 0.06789,0.037 0.01697,0.0216 0.0046,0.0231 c 0,0 -0.01081,0.007 -0.01852,0.0108 -0.0077,0.003 -0.03549,-0.004 -0.0432,-0.004 -0.0077,0 -0.08795,-0.003 -0.08795,-0.003 l -0.05554,0.004 -0.05709,0.0169 -0.05864,0.0262 c 0,0 -0.02623,0.003 -0.03394,0.006 -0.0077,0.003 -0.02623,0.003 -0.03241,0 -0.0062,-0.003 -0.02623,-0.0201 -0.03241,-0.0278 -0.0062,-0.007 -0.01389,-0.037 -0.01389,-0.037 0,0 -0.0031,-0.0294 0.0077,-0.0432 0.01081,-0.0139 0.02931,-0.0417 0.02931,-0.0417 l 0.04475,-0.0278 0.04012,-0.0108 z"
         id="path863" />
      <path
         style="fill:#000000;fill-opacity:1;fill-rule:evenodd;stroke:#000000;stroke-width:0.031351;stroke-linecap:butt;stroke-linejoin:miter;stroke-miterlimit:4;stroke-dasharray:none;stroke-opacity:1"
         d="m 64.262737,111.47048 -0.0043,0.0334 0.0022,0.0411 0.02052,0.0205 c 0,0 0.02593,0.009 0.03565,0.009 0.0097,0 0.03456,-10e-4 0.03996,-0.006 0.0054,-0.005 0.03241,-0.0227 0.03241,-0.0227 l 0.02376,0.0454 c 0,0 0.01405,0.0432 0.01512,0.0518 0.001,0.008 0.0054,0.053 0.0054,0.0594 0,0.006 -0.01836,0.0713 -0.02052,0.0756 -0.0022,0.004 -0.04104,0.0475 -0.04104,0.0475 l -0.05725,0.0292 c 0,0 -0.04428,0.006 -0.05184,0.005 -0.0075,-10e-4 -0.05616,-0.0119 -0.06265,-0.0162 -0.0065,-0.004 -0.02484,-0.0194 -0.03996,-0.027 -0.01512,-0.007 -0.0486,-0.0399 -0.05401,-0.0486 -0.0054,-0.008 -0.02268,-0.0367 -0.02808,-0.0561 -0.0054,-0.0194 -0.01188,-0.0486 -0.01188,-0.067 0,-0.0184 0.0043,-0.0496 0.0087,-0.0594 0.0043,-0.009 0.01729,-0.0399 0.02484,-0.0476 0.0075,-0.007 0.03132,-0.0227 0.03996,-0.0302 0.0087,-0.007 0.04753,-0.0249 0.04753,-0.0249 l 0.04104,-0.0119 z"
         id="path901" />
      <path
         style="fill:#ffffff;fill-opacity:1;fill-rule:evenodd;stroke:#000000;stroke-width:0.0153018;stroke-linecap:butt;stroke-linejoin:miter;stroke-miterlimit:4;stroke-dasharray:none;stroke-opacity:1"
         d="m 64.292989,111.63202 c 0.0016,-0.0132 0.03139,-0.0271 0.03139,-0.0271 l 0.04238,0.0132 c 0,0 0.01874,0.0191 0.02354,0.0431 0.0046,0.0238 -0.01411,0.0636 -0.01411,0.0636 l -0.03923,0.007 -0.03139,-0.0207 -0.01874,-0.0382 z"
         id="path903" />
      <path
         style="fill:#000000;fill-opacity:1;stroke:#000000;stroke-width:0.0443044;stroke-linecap:butt;stroke-linejoin:miter;stroke-miterlimit:4;stroke-dasharray:none;stroke-opacity:1"
         d="m 65.171693,111.77492 -0.0062,0.0468 0.0031,0.0577 0.02924,0.0286 c 0,0 0.03694,0.0133 0.05079,0.0133 0.01385,0 0.04923,-10e-4 0.05693,-0.009 0.0076,-0.007 0.04618,-0.0319 0.04618,-0.0319 l 0.03385,0.0635 c 0,0 0.02,0.0605 0.02154,0.0727 0.0015,0.0117 0.0076,0.0743 0.0076,0.0833 0,0.009 -0.02615,0.0999 -0.02924,0.10585 -0.0031,0.005 -0.05847,0.0667 -0.05847,0.0667 l -0.08156,0.0409 c 0,0 -0.06308,0.009 -0.07386,0.007 -0.01076,-10e-4 -0.08002,-0.0166 -0.08927,-0.0227 -0.0093,-0.005 -0.03538,-0.0273 -0.05693,-0.0378 -0.02155,-0.0107 -0.06925,-0.0561 -0.07695,-0.0681 -0.0076,-0.0116 -0.03231,-0.0513 -0.04,-0.0786 -0.0076,-0.0273 -0.01694,-0.0681 -0.01694,-0.0938 0,-0.0258 0.0062,-0.0696 0.01235,-0.0833 0.0062,-0.0133 0.02463,-0.0561 0.0354,-0.0667 0.01076,-0.0107 0.04462,-0.0319 0.05693,-0.0423 0.01235,-0.0107 0.06772,-0.0348 0.06772,-0.0348 l 0.05847,-0.0166 z"
         id="path905" />
      <path
         style="fill:#ffffff;fill-opacity:1;stroke:#000000;stroke-width:0.0226838;stroke-linecap:butt;stroke-linejoin:miter;stroke-miterlimit:4;stroke-dasharray:none;stroke-opacity:1"
         d="m 65.243462,111.99187 c 0.0023,-0.0186 0.04616,-0.0406 0.04616,-0.0406 l 0.06235,0.0185 c 0,0 0.02769,0.0285 0.03462,0.0644 0.0069,0.0356 -0.02076,0.0951 -0.02076,0.0951 l -0.05772,0.0119 -0.04618,-0.0309 -0.02769,-0.0573 z"
         id="path907" />
    </g>
  </g>
</svg>
